<svg id="Capa_1" enable-background="new 0 0 512 512" height="512" viewBox="0 0 512 512" width="512" xmlns="http://www.w3.org/2000/svg" xmlns:xlink="http://www.w3.org/1999/xlink"><linearGradient id="SVGID_1_" gradientUnits="userSpaceOnUse" x1="256" x2="256" y1="512" y2="0"><stop offset="0" stop-color="#ffc2cc"/><stop offset="1" stop-color="#fff2f4"/></linearGradient><linearGradient id="SVGID_2_" gradientUnits="userSpaceOnUse" x1="256" x2="256" y1="407" y2="105"><stop offset="0" stop-color="#ffa68d"/><stop offset="1" stop-color="#fd3a84"/></linearGradient><g><g><circle cx="256" cy="256" fill="url(#SVGID_1_)" r="256"/></g><g><g><path d="m389.125 105h-195.25c-4.906 0-8.875 3.973-8.875 8.882v284.235c0 4.91 3.969 8.882 8.875 8.882h112.888l20.506-82.092c.988-3.956 4.533-6.731 8.606-6.731h62.125v-204.294c0-4.909-3.969-8.882-8.875-8.882zm-166.025 47.014c3.467-3.47 9.083-3.47 12.55 0l2.6 2.602 11.475-11.484c3.467-3.47 9.083-3.47 12.55 0s3.467 9.09 0 12.56l-17.75 17.765c-1.733 1.735-4.004 2.602-6.275 2.602s-4.542-.867-6.275-2.602l-8.875-8.882c-3.467-3.471-3.467-9.092 0-12.561zm0 53.294c3.467-3.47 9.083-3.47 12.55 0l2.6 2.602 11.475-11.484c3.467-3.47 9.083-3.47 12.55 0s3.467 9.09 0 12.56l-17.75 17.765c-1.733 1.735-4.004 2.603-6.275 2.603s-4.542-.868-6.275-2.603l-8.875-8.882c-3.467-3.471-3.467-9.091 0-12.561zm0 53.294c3.467-3.469 9.083-3.469 12.55 0l2.6 2.603 11.475-11.485c3.467-3.47 9.083-3.47 12.55 0s3.467 9.091 0 12.561l-17.75 17.765c-1.733 1.735-4.004 2.602-6.275 2.602s-4.542-.867-6.275-2.602l-8.875-8.882c-3.467-3.471-3.467-9.092 0-12.562zm59.525 77.339h-53.25c-4.906 0-8.875-3.973-8.875-8.883 0-4.909 3.969-8.882 8.875-8.882h53.25c4.906 0 8.875 3.973 8.875 8.882 0 4.91-3.969 8.883-8.875 8.883zm71-53.294h-71c-4.906 0-8.875-3.973-8.875-8.882s3.969-8.882 8.875-8.882h71c4.906 0 8.875 3.973 8.875 8.882s-3.969 8.882-8.875 8.882zm0-53.294h-71c-4.906 0-8.875-3.973-8.875-8.882 0-4.91 3.969-8.882 8.875-8.882h71c4.906 0 8.875 3.973 8.875 8.882s-3.969 8.882-8.875 8.882zm0-53.294h-71c-4.906 0-8.875-3.973-8.875-8.882s3.969-8.882 8.875-8.882h71c4.906 0 8.875 3.973 8.875 8.882s-3.969 8.882-8.875 8.882zm-27.488 226.601 66.663-66.718h-49.991zm-176.637-260.494v-10.519c0-4.91-3.969-8.882-8.875-8.882s-8.875 3.973-8.875 8.882v10.519c-10.308 3.679-17.75 13.446-17.75 25.011v115.471h53.25v-115.472c0-11.564-7.442-21.331-17.75-25.01zm-35.5 195.302c0 18.303 7.419 36.224 20.35 49.165 1.733 1.735 4.004 2.603 6.275 2.603s4.542-.868 6.275-2.603c12.931-12.941 20.35-30.862 20.35-49.165v-37.056h-53.25z" fill="url(#SVGID_2_)"/></g></g></g></svg>